<svg xmlns="http://www.w3.org/2000/svg" viewBox="0 0 760 280">
  <defs>
    <style>
      .text { font-family: 'Montserrat', 'Segoe UI', Arial, sans-serif; font-weight: 700; letter-spacing: 0.04em; }
    </style>
  </defs>
  <g transform="translate(30 20)">
    <path d="M150 10
             A140 140 0 0 0 10 150
             A140 140 0 0 0 150 290
             L150 220
             A70 70 0 0 1 80 150
             A70 70 0 0 1 150 80
             Z" fill="#0d5ea8" />
    <path d="M150 10
             A140 140 0 0 1 290 150
             A140 140 0 0 1 150 290
             L150 220
             A70 70 0 0 0 220 150
             A70 70 0 0 0 150 80
             Z" fill="#148255" />
  </g>
  <text class="text" x="360" y="140" font-size="110" fill="#0d5ea8">AXIS</text>
  <text class="text" x="360" y="220" font-size="96" fill="#0d5ea8">ENERGY</text>
</svg>
